<svg width="42" height="27" viewBox="0 0 42 27" fill="none" xmlns="http://www.w3.org/2000/svg">
<path d="M13.5391 2.79199C19.4881 2.79206 24.2859 7.58547 24.2861 13.4688C24.2861 19.3522 19.4882 24.1464 13.5391 24.1465C7.58982 24.1465 2.79199 19.3522 2.79199 13.4688C2.79221 7.58543 7.58995 2.79199 13.5391 2.79199Z" stroke="#27292E" stroke-width="5.58307"/>
<path d="M28.1948 24.1469C30.9712 24.1469 33.6338 23.0293 35.597 21.04C37.5602 19.0506 38.6631 16.3525 38.6631 13.5391C38.6631 10.7257 37.5602 8.02759 35.597 6.03823C33.6338 4.04888 30.9712 2.93127 28.1948 2.93127" stroke="#27292E" stroke-width="5.58307"/>
<path d="M0 8.44438V0H8.44438C3.98687 2.04741 2.05882 3.85983 0 8.44438Z" fill="#ED6C2C"/>
</svg>
