<svg width="1086" height="1086" viewBox="0 0 1086 1086" fill="none" xmlns="http://www.w3.org/2000/svg">
<rect width="1086" height="1086" rx="47" fill="#1E1E1E"/>
<path d="M372.366 290.055C513.141 290.055 626.678 403.496 626.678 542.715C626.678 681.934 513.141 795.375 372.366 795.375C231.592 795.375 118.055 681.934 118.055 542.715C118.055 403.496 231.592 290.055 372.366 290.055Z" stroke="white" stroke-width="132.11"/>
<path d="M719.153 793.724C784.849 793.724 847.854 767.278 894.308 720.205C940.762 673.132 966.859 609.287 966.859 542.715C966.859 476.143 940.762 412.298 894.308 365.225C847.854 318.152 784.849 291.706 719.153 291.706" stroke="white" stroke-width="132.11"/>
<path d="M52 423.816V224H251.816C146.34 272.447 100.717 315.334 52 423.816Z" fill="#ED6C2C"/>
</svg>
